/* XPM */
static char * close_inactive_xpm[] = {
"30 30 4 1",
" 	c None",
".	c #EC9A69",
"+	c #a88f86",
"@	c #EC9A69",
"..............................",
"..............................",
"..............................",
"..............................",
"..............................",
"..............................",
"..............................",
"..............................",
"..............................",
"..............................",
"..........+@......@+..........",
"..........@+@....@+@..........",
"...........@+@..@+@...........",
"............@+@@+@............",
".............@++@.............",
".............@++@.............",
"............@+@@+@............",
"...........@+@..@+@...........",
"..........@+@....@+@..........",
"..........+@......@+..........",
"..............................",
"..............................",
"..............................",
"..............................",
"..............................",
"..............................",
"..............................",
"..............................",
"..............................",
".............................."};
